<?xml version="1.0" encoding="UTF-8"?>
<svg width="691px" height="407px" viewBox="0 0 691 407" version="1.1" xmlns="http://www.w3.org/2000/svg" xmlns:xlink="http://www.w3.org/1999/xlink">
    <!-- Generator: Sketch 58 (84663) - https://sketch.com -->
    <title>Shape-Footer</title>
    <desc>Created with Sketch.</desc>
    <defs>
        <linearGradient x1="84.1872711%" y1="37.0941719%" x2="35.4258242%" y2="51.6546276%" id="linearGradient-1">
            <stop stop-color="#9B9B9B" stop-opacity="0" offset="0%"></stop>
            <stop stop-color="#9A9A9A" offset="100%"></stop>
        </linearGradient>
        <polygon id="path-2" points="0.489130086 0.294807917 8.71885714 0.294807917 8.71885714 5.85681875 0.489130086 5.85681875"></polygon>
        <linearGradient x1="85.4207765%" y1="39.9391436%" x2="22.9062052%" y2="63.1816212%" id="linearGradient-4">
            <stop stop-color="#FFFFFF" stop-opacity="0.0460281906" offset="0%"></stop>
            <stop stop-color="#FFFFFF" stop-opacity="0" offset="100%"></stop>
        </linearGradient>
    </defs>
    <g id="Symbols" stroke="none" stroke-width="1" fill="none" fill-rule="evenodd">
        <g id="Footer/Dark">
            <g id="Shape-Footer" transform="translate(-1094.000000, -81.000000)">
                <polygon id="Shape-05" fill="url(#linearGradient-1)" opacity="0.271833147" points="1524.96556 0 0 888.050633 451.034439 1149 1976 260.945322"></polygon>
                <g id="Group-146" opacity="0.109002976" transform="translate(1054.000000, 189.000000)">
                    <path d="M177.819255,0.585512725 C179.38644,1.36619636 179.394442,2.63164077 177.837928,3.41232441 C176.281414,4.19300804 173.741908,4.19761384 172.176057,3.41577876 C170.608873,2.63509513 170.610206,1.36619636 172.166721,0.585512725 C173.723235,-0.195170908 176.252071,-0.195170908 177.819255,0.585512725" id="Fill-1" fill="#E0E0E0"></path>
                    <path d="M193.819396,9.58784885 C195.385727,10.3679984 195.395059,11.6314263 193.838059,12.4127265 C192.282392,13.192876 189.745602,13.1974786 188.180604,12.4161785 C186.614273,11.636029 186.604941,10.3633957 188.161941,9.5832462 C189.717608,8.80309669 192.253065,8.80654868 193.819396,9.58784885" id="Fill-3" fill="#E0E0E0"></path>
                    <path d="M208.813036,19.5853763 C210.38694,20.3699042 210.394937,21.632971 208.841023,22.4128975 C207.285776,23.1939744 204.748339,23.1974254 203.175767,22.4128975 C201.609859,21.632971 201.609859,20.3653029 203.165106,19.5853763 C204.720352,18.8054498 207.247128,18.8042995 208.813036,19.5853763" id="Fill-5" fill="#E0E0E0"></path>
                    <path d="M225.815574,27.5851554 C227.382066,28.3653625 227.398064,29.6346375 225.843571,30.4148446 C224.287745,31.1950518 221.741363,31.1950518 220.176205,30.4148446 C218.609714,29.6346375 218.609714,28.3653625 220.16554,27.5851554 C221.721366,26.8049482 224.249083,26.8049482 225.815574,27.5851554" id="Fill-7" fill="#E0E0E0"></path>
                    <path d="M241.819329,36.5855127 C243.386415,37.3661964 243.394418,38.6316408 241.838001,39.4123244 C240.281584,40.193008 237.742237,40.1976138 236.176484,39.4157788 C234.609398,38.6350951 234.609398,37.3661964 236.167149,36.5855127 C237.723565,35.8048291 240.252243,35.8048291 241.819329,36.5855127" id="Fill-9" fill="#E0E0E0"></path>
                    <g id="Group-13" transform="translate(249.000000, 44.000000)">
                        <mask id="mask-3" fill="white">
                            <use xlink:href="#path-2"></use>
                        </mask>
                        <g id="Clip-12"></g>
                        <path d="M7.50486857,1.11221333 C9.11629714,2.19701333 9.12452571,3.95381333 7.52406857,5.04021333 C5.92361143,6.12501333 3.31241143,6.13141333 1.70372571,5.04501333 C0.0922971429,3.96021333 0.0826971429,2.19061333 1.68452571,1.10581333 C3.28498286,0.0210133333 5.89344,0.0258133333 7.50486857,1.11221333" id="Fill-11" fill="#E0E0E0" mask="url(#mask-3)"></path>
                    </g>
                    <path d="M162.818593,9.58619828 C164.386656,10.3672199 164.394664,11.6332122 162.837276,12.4142338 C161.279889,13.1952554 158.748301,13.1952554 157.180237,12.4142338 C155.613508,11.6320602 155.605501,10.3672199 157.162888,9.58619828 C158.720276,8.80517666 161.25053,8.80402471 162.818593,9.58619828" id="Fill-14" fill="#E0E0E0"></path>
                    <path d="M177.818616,19.5876756 C179.385758,20.3683592 179.395094,21.6338036 177.838622,22.4144873 C176.280817,23.1951709 173.750718,23.1951709 172.183576,22.4144873 C170.617769,21.6338036 170.601764,20.3649049 172.158235,19.5842212 C173.714707,18.8023862 176.251475,18.806992 177.818616,19.5876756" id="Fill-16" fill="#E0E0E0"></path>
                    <path d="M194.81247,27.585629 C196.387125,28.3704954 196.395125,29.6341073 194.84047,30.4143704 C193.284481,31.1957843 190.755166,31.1957843 189.179177,30.4109179 C187.613855,29.629504 187.605855,28.3658921 189.161844,27.585629 C190.717833,26.8053659 193.245815,26.804215 194.81247,27.585629" id="Fill-18" fill="#E0E0E0"></path>
                    <path d="M208.815676,36.5854915 C210.381581,37.3661468 210.398921,38.6349995 208.842353,39.4168062 C207.285785,40.1974616 204.746192,40.1928559 203.180287,39.4122006 C201.614383,38.6315453 201.605046,37.3661468 203.161614,36.5854915 C204.719516,35.8048362 207.247104,35.8048362 208.815676,36.5854915" id="Fill-20" fill="#E0E0E0"></path>
                    <path d="M225.818593,46.5858295 C227.386656,47.3669355 227.394664,48.6330645 225.837276,49.4141705 C224.279889,50.1952765 221.748301,50.1952765 220.180237,49.4141705 C218.613508,48.6330645 218.605501,47.3669355 220.162888,46.5858295 C221.720276,45.8047235 224.25053,45.8047235 225.818593,46.5858295" id="Fill-22" fill="#E0E0E0"></path>
                    <path d="M241.81876,55.5881667 C243.385935,56.3687379 243.395271,57.632849 241.837433,58.4145715 C240.280929,59.1951428 237.750776,59.1951428 236.183601,58.4145715 C234.617761,57.632849 234.601756,56.3641328 236.15826,55.5835615 C237.714764,54.8029902 240.251586,54.8064441 241.81876,55.5881667" id="Fill-24" fill="#E0E0E0"></path>
                    <path d="M145.823942,19.5831938 C147.389792,20.3638491 147.391126,21.6327018 145.833278,22.4145085 C144.276764,23.1951638 141.746595,23.1951638 140.180745,22.4145085 C138.61356,21.6327018 138.605558,20.3684547 140.162072,19.5877994 C141.718586,18.8071441 144.256757,18.8025384 145.823942,19.5831938" id="Fill-26" fill="#E0E0E0"></path>
                    <path d="M162.823942,27.5855659 C164.390237,28.365745 164.390237,29.6338236 162.834606,30.4140027 C161.278974,31.1953324 158.748907,31.1953324 157.185277,30.4140027 C155.617649,29.6338236 155.601652,28.365745 157.157284,27.5855659 C158.712916,26.8053868 161.257646,26.8042361 162.823942,27.5855659" id="Fill-28" fill="#E0E0E0"></path>
                    <path d="M177.817376,36.5831379 C179.391085,37.3675523 179.391085,38.6350372 177.836031,39.4148509 C176.280977,40.1958148 173.753182,40.1958148 172.180805,39.4102502 C170.613759,38.6304365 170.605763,37.3675523 172.160817,36.5865884 C173.715871,35.8067747 176.251662,35.8033242 177.817376,36.5831379" id="Fill-30" fill="#E0E0E0"></path>
                    <path d="M194.819322,46.5837584 C196.385751,47.3638235 196.395083,48.6363191 194.837986,49.4163842 C193.282221,50.1975999 190.745272,50.1929978 189.180176,49.4117821 C187.613747,48.631717 187.605748,47.3684257 189.161512,46.58721 C190.717277,45.8071449 193.252893,45.8025427 194.819322,46.5837584" id="Fill-32" fill="#E0E0E0"></path>
                    <path d="M208.824369,55.5831938 C210.390317,56.3638491 210.390317,57.6338532 208.833706,58.4145085 C207.277094,59.1951638 204.746767,59.1951638 203.180819,58.4145085 C201.613536,57.6327018 201.605533,56.3684547 203.162145,55.5877994 C204.718756,54.8071441 207.255753,54.8025384 208.824369,55.5831938" id="Fill-34" fill="#E0E0E0"></path>
                    <path d="M225.823942,64.5851974 C227.390237,65.3654607 227.390237,66.6336762 225.834606,67.4139394 C224.278974,68.1953535 221.748907,68.1953535 220.185277,67.4139394 C218.617649,66.6336762 218.601652,65.3654607 220.157284,64.5851974 C221.712916,63.8049342 224.257646,63.8049342 225.823942,64.5851974" id="Fill-36" fill="#E0E0E0"></path>
                    <path d="M130.820808,27.5848296 C132.387273,28.3651769 132.395272,29.6300761 130.831474,30.4138763 C129.274341,31.1953746 126.745334,31.1953746 125.180202,30.4138763 C123.613738,29.633529 123.605739,28.3697807 125.161538,27.5882824 C126.72667,26.8044823 129.254344,26.8044823 130.820808,27.5848296" id="Fill-38" fill="#E0E0E0"></path>
                    <path d="M145.820878,36.5870392 C147.386584,37.3668816 147.395912,38.6298123 145.831538,39.4142555 C144.276492,40.1952482 141.748709,40.1952482 140.184335,39.4142555 C138.618629,38.6344131 138.601306,37.3668816 140.156352,36.5870392 C141.720726,35.8025959 144.255172,35.8060465 145.820878,36.5870392" id="Fill-40" fill="#E0E0E0"></path>
                    <path d="M162.814714,46.584241 C164.387962,47.3684022 164.395955,48.6308786 162.833364,49.4150398 C161.278765,50.1957516 158.75171,50.1957516 157.179793,49.4104406 C155.614538,48.6308786 155.605213,47.3684022 157.161144,46.5876904 C158.723735,45.804679 161.249458,45.804679 162.814714,46.584241" id="Fill-42" fill="#E0E0E0"></path>
                    <path d="M177.817037,55.5843493 C179.382941,56.364247 179.398934,57.6330185 177.837027,58.416367 C176.280451,59.1974149 173.744352,59.1928137 172.17978,58.4129161 C170.613876,57.6330185 170.60588,56.3688481 172.161123,55.5889505 C173.725695,54.8044517 176.251132,54.8044517 177.817037,55.5843493" id="Fill-44" fill="#E0E0E0"></path>
                    <path d="M194.820808,64.5846652 C196.387273,65.3649843 196.395272,66.6298379 194.831474,67.4147607 C193.274341,68.1950798 190.745334,68.1950798 189.180202,67.4147607 C187.613738,66.6332906 187.605739,65.3695879 189.161538,64.5892688 C190.72667,63.804346 193.254344,63.804346 194.820808,64.5846652" id="Fill-46" fill="#E0E0E0"></path>
                    <path d="M208.820878,72.5870392 C210.386584,73.3668816 210.395912,74.6309625 208.831538,75.4142555 C207.276492,76.1952482 204.748709,76.1952482 203.184335,75.4142555 C201.618629,74.6344131 201.601306,73.3668816 203.156352,72.5870392 C204.720726,71.8025959 207.255172,71.8060465 208.820878,72.5870392" id="Fill-48" fill="#E0E0E0"></path>
                    <path d="M115.819231,36.5855127 C117.386448,37.3661964 117.394451,38.6316408 115.837904,39.4123244 C114.281357,40.193008 111.741799,40.1976138 110.177249,39.4157788 C108.608699,38.6350951 108.610032,37.3661964 110.166579,36.5855127 C111.723126,35.8048291 114.252014,35.8048291 115.819231,36.5855127" id="Fill-50" fill="#E0E0E0"></path>
                    <path d="M130.819178,46.5873367 C132.385574,47.3675701 132.394906,48.6322848 130.839174,49.4125183 C129.28211,50.1927517 126.745214,50.1973548 125.180151,49.4171214 C123.613755,48.636888 123.605756,47.3641178 125.161488,46.5838843 C126.717219,45.8025001 129.252782,45.8071033 130.819178,46.5873367" id="Fill-52" fill="#E0E0E0"></path>
                    <path d="M146.812613,55.5853763 C148.387752,56.3699042 148.394415,57.632971 146.840598,58.4128975 C145.285448,59.1939744 142.748168,59.1974254 141.175694,58.4128975 C139.609883,57.632971 139.609883,56.3653029 141.165033,55.5853763 C142.720183,54.8054498 145.246802,54.8042995 146.812613,55.5853763" id="Fill-54" fill="#E0E0E0"></path>
                    <path d="M162.816315,64.5851554 C164.381375,65.3653625 164.398706,66.6346375 162.842977,67.4148446 C161.287248,68.1950518 158.741025,68.1950518 157.175964,67.4148446 C155.609571,66.6346375 155.609571,65.3653625 157.166633,64.5851554 C158.722362,63.8049482 161.249921,63.8049482 162.816315,64.5851554" id="Fill-56" fill="#E0E0E0"></path>
                    <path d="M178.819231,72.5855127 C180.386448,73.3661964 180.394451,74.6316408 178.837904,75.4123244 C177.281357,76.193008 174.741799,76.1976138 173.177249,75.4157788 C171.608699,74.6350951 171.610032,73.3661964 173.166579,72.5855127 C174.723126,71.8048291 177.252014,71.8048291 178.819231,72.5855127" id="Fill-58" fill="#E0E0E0"></path>
                    <path d="M194.819178,81.5878488 C196.385574,82.3679984 196.394906,83.6314263 194.839174,84.4127265 C193.28211,85.192876 190.745214,85.1974786 189.180151,84.4161785 C187.613755,83.636029 187.605756,82.3633957 189.161488,81.5832462 C190.717219,80.8030967 193.252782,80.8065487 194.819178,81.5878488" id="Fill-60" fill="#E0E0E0"></path>
                    <path d="M100.818165,46.5861983 C102.38613,47.3672199 102.395471,48.6332122 100.836847,49.4142338 C99.2795573,50.1952554 96.748128,50.1952554 95.1801631,49.4142338 C93.6135326,48.6320602 93.605526,47.3672199 95.1628154,46.5861983 C96.7201048,45.8051767 99.2501997,45.8040247 100.818165,46.5861983" id="Fill-62" fill="#E0E0E0"></path>
                    <path d="M116.819786,55.5876756 C118.385593,56.3683592 118.394929,57.6338036 116.838458,58.4144873 C115.281987,59.1951709 112.750554,59.1951709 111.184747,58.4144873 C109.617606,57.6338036 109.601601,56.3649049 111.158072,55.5842212 C112.714543,54.8023862 115.251311,54.806992 116.819786,55.5876756" id="Fill-64" fill="#E0E0E0"></path>
                    <path d="M130.812788,64.5859972 C132.387246,65.370779 132.395245,66.6342546 130.839451,67.4144336 C129.283656,68.1957632 126.754657,68.1957632 125.180199,67.4109814 C123.613739,66.6296518 123.60574,65.3661762 125.161534,64.5859972 C126.718662,63.8046676 129.244995,63.8046676 130.812788,64.5859972" id="Fill-66" fill="#E0E0E0"></path>
                    <path d="M146.815154,72.5854915 C148.382427,73.3661468 148.398433,74.6349995 146.841831,75.4168062 C145.285229,76.1974616 142.746915,76.1928559 141.179642,75.4122006 C139.613703,74.6315453 139.6057,73.3661468 141.162302,72.5854915 C142.718904,71.8048362 145.247881,71.8048362 146.815154,72.5854915" id="Fill-68" fill="#E0E0E0"></path>
                    <path d="M162.818165,81.5858295 C164.38613,82.3669355 164.395471,83.6330645 162.836847,84.4141705 C161.279557,85.1952765 158.748128,85.1952765 157.180163,84.4141705 C155.613533,83.6319124 155.605526,82.3669355 157.162815,81.5858295 C158.720105,80.8047235 161.2502,80.8047235 162.818165,81.5858295" id="Fill-70" fill="#E0E0E0"></path>
                    <path d="M178.819786,90.5876121 C180.385593,91.3682115 180.394929,92.6335193 178.838458,93.4141187 C177.281987,94.1958693 174.750554,94.194718 173.184747,93.4141187 C171.617606,92.6335193 171.601601,91.3647575 173.158072,90.5841582 C174.714543,89.8024075 177.251311,89.8070128 178.819786,90.5876121" id="Fill-72" fill="#E0E0E0"></path>
                    <path d="M84.8180205,55.5865668 C86.3859522,56.3675041 86.3952931,57.6322079 84.8380366,58.414297 C83.2794457,59.1952343 80.7480699,59.1952343 79.1801382,58.414297 C77.6135408,57.6322079 77.6055343,56.3675041 79.1627908,55.5865668 C80.7200473,54.8044777 83.2500887,54.8044777 84.8180205,55.5865668" id="Fill-74" fill="#E0E0E0"></path>
                    <path d="M100.819288,64.5876756 C102.386429,65.3683592 102.394431,66.6338036 100.83796,67.4144873 C99.2814895,68.1951709 96.7513906,68.1951709 95.1842498,67.4144873 C93.6184427,66.6338036 93.6011041,65.3649049 95.1575751,64.5842212 C96.714046,63.8023862 99.2521473,63.806992 100.819288,64.5876756" id="Fill-76" fill="#E0E0E0"></path>
                    <path d="M116.812689,72.5852393 C118.387278,73.3701621 118.395278,74.6350157 116.839354,75.4153348 C115.28343,76.195654 112.75422,76.195654 111.17963,75.4107312 C109.614374,74.6304121 109.605041,73.3667094 111.162298,72.5852393 C112.718222,71.8049202 115.246098,71.8049202 116.812689,72.5852393" id="Fill-78" fill="#E0E0E0"></path>
                    <path d="M130.815009,81.5855127 C132.382248,82.3661964 132.398254,83.6350951 130.843019,84.4157788 C129.285117,85.1976138 126.746856,85.193008 125.179617,84.4123244 C123.613711,83.6316408 123.605709,82.3661964 125.162277,81.5855127 C126.718846,80.8048291 129.24777,80.8048291 130.815009,81.5855127" id="Fill-80" fill="#E0E0E0"></path>
                    <path d="M146.81802,90.5861983 C148.385952,91.3672199 148.395293,92.6332122 146.838037,93.4142338 C145.279446,94.1952554 142.74807,94.1952554 141.180138,93.4142338 C139.613541,92.6320602 139.605534,91.3672199 141.162791,90.5861983 C142.720047,89.8051767 145.250089,89.8040247 146.81802,90.5861983" id="Fill-82" fill="#E0E0E0"></path>
                    <path d="M162.819288,99.5876756 C164.386429,100.368359 164.394431,101.633804 162.83796,102.414487 C161.281489,103.195171 158.751391,103.195171 157.18425,102.414487 C155.618443,101.633804 155.601104,100.364905 157.157575,99.5842212 C158.714046,98.8023862 161.252147,98.806992 162.819288,99.5876756" id="Fill-84" fill="#E0E0E0"></path>
                    <path d="M68.8232753,64.5837256 C70.3904586,65.3643251 70.3904586,66.6330873 68.8339455,67.4136868 C67.2774323,68.1954377 64.7459311,68.1954377 63.1814153,67.4136868 C61.614232,66.6330873 61.6048956,65.3689304 63.1614087,64.5871795 C64.7192556,63.80658 67.256092,63.803126 68.8232753,64.5837256" id="Fill-86" fill="#E0E0E0"></path>
                    <path d="M84.8238688,72.5855659 C86.3902617,73.365745 86.3902617,74.6338236 84.8345336,75.4140027 C83.2788056,76.1953324 80.7499143,76.1953324 79.1848546,75.4140027 C77.6184617,74.6338236 77.6011314,73.365745 79.1568595,72.5855659 C80.7139206,71.8053868 83.257476,71.8042361 84.8238688,72.5855659" id="Fill-88" fill="#E0E0E0"></path>
                    <path d="M100.816351,81.5831379 C102.391426,82.3675523 102.391426,83.6350372 100.835007,84.4148509 C99.2799204,85.1958148 96.7520717,85.1958148 95.1796619,84.4102502 C93.6139148,83.6304365 93.6059195,82.3675523 95.1610062,81.5865884 C96.7160928,80.8067747 99.2506043,80.8033242 100.816351,81.5831379" id="Fill-90" fill="#E0E0E0"></path>
                    <path d="M116.819947,90.5828786 C118.386213,91.363112 118.394211,92.6358822 116.838609,93.4161157 C115.283006,94.1974999 112.744987,94.1928967 111.180053,93.4126633 C109.613787,92.6324299 109.605789,91.3677152 111.161391,90.5874817 C112.716994,89.8072483 115.25368,89.8026452 116.819947,90.5828786" id="Fill-92" fill="#E0E0E0"></path>
                    <path d="M132.823349,99.5835615 C134.390434,100.364133 134.390434,101.632849 132.834018,102.414572 C131.277602,103.195143 128.746258,103.195143 127.18184,102.414572 C125.61342,101.632849 125.605418,100.368738 127.161834,99.5881667 C128.719584,98.8064441 131.256263,98.8029902 132.823349,99.5835615" id="Fill-94" fill="#E0E0E0"></path>
                    <path d="M146.823869,109.585566 C148.390262,110.365745 148.390262,111.633824 146.834534,112.414003 C145.278806,113.195332 142.749914,113.195332 141.184855,112.414003 C139.618462,111.633824 139.601131,110.365745 141.156859,109.585566 C142.713921,108.805387 145.257476,108.804236 146.823869,109.585566" id="Fill-96" fill="#E0E0E0"></path>
                    <path d="M53.8192468,72.5852605 C55.3857759,73.3656078 55.3951085,74.630507 53.8379118,75.4108543 C52.2740491,76.1958055 49.7449377,76.1958055 48.1797418,75.4143072 C46.6132126,74.6339599 46.6038801,73.3702116 48.169076,72.5852605 C49.7249395,71.8049132 52.2527176,71.8049132 53.8192468,72.5852605" id="Fill-98" fill="#E0E0E0"></path>
                    <path d="M68.8208893,81.5870839 C70.3852327,82.3669815 70.3945601,83.6311519 68.8395441,84.4110495 C67.2752007,85.1955483 64.7474669,85.1955483 63.1831235,84.4156507 C61.6174475,83.635753 61.6001252,82.3681318 63.1644686,81.583633 C64.7194846,80.8025851 67.2538808,80.8071863 68.8208893,81.5870839" id="Fill-100" fill="#E0E0E0"></path>
                    <path d="M84.8138237,90.585124 C86.3869082,91.3693137 86.3949002,92.6318361 84.8404636,93.4114265 C83.2767031,94.196766 80.7499112,94.1956162 79.1781588,93.4114265 C77.6130663,92.6318361 77.6050743,91.3693137 79.1675028,90.585124 C80.7232714,89.8055337 83.2473993,89.8043838 84.8138237,90.585124" id="Fill-102" fill="#E0E0E0"></path>
                    <path d="M100.816337,99.5849028 C102.382045,100.364773 102.398035,101.6335 100.842987,102.413371 C99.2799437,103.197842 96.74283,103.193241 95.1784543,102.413371 C93.612746,101.63235 93.6047509,100.369374 95.1691267,99.5849028 C96.7241748,98.8050324 99.2506283,98.8050324 100.816337,99.5849028" id="Fill-104" fill="#E0E0E0"></path>
                    <path d="M116.819247,109.58526 C118.385776,110.365608 118.395108,111.630507 116.837912,112.410854 C115.274049,113.195805 112.744938,113.195805 111.179742,112.414307 C109.613213,111.63396 109.60388,110.370212 111.169076,109.58526 C112.724939,108.804913 115.252718,108.804913 116.819247,109.58526" id="Fill-106" fill="#E0E0E0"></path>
                    <path d="M132.820889,118.587596 C134.385233,119.367409 134.39456,120.630293 132.839544,121.411257 C131.275201,122.195672 128.747467,122.195672 127.183123,121.414708 C125.617448,120.634894 125.600125,119.367409 127.164469,118.582995 C128.719485,117.803181 131.253881,117.806632 132.820889,118.587596" id="Fill-108" fill="#E0E0E0"></path>
                    <path d="M53.8199466,90.5873367 C55.3862134,91.3675701 55.3942113,92.6322848 53.8386085,93.4125183 C52.2830057,94.1927517 49.7449871,94.1973548 48.1800534,93.4171214 C46.6137866,92.6357372 46.6057887,91.3641178 48.1613915,90.5838843 C49.7169943,89.8025001 52.2536799,89.8071033 53.8199466,90.5873367" id="Fill-112" fill="#E0E0E0"></path>
                    <path d="M68.8133533,99.5857445 C70.3870616,100.370188 70.3950568,101.633118 68.8400038,102.412961 C67.2849508,103.193953 64.7478292,103.197404 63.1754534,102.412961 C61.6097403,101.633118 61.6097403,100.365587 63.1661258,99.5857445 C64.7211788,98.8047518 67.2476402,98.8047518 68.8133533,99.5857445" id="Fill-114" fill="#E0E0E0"></path>
                    <path d="M84.8156482,109.585155 C86.3820419,110.365362 86.3980392,111.633487 84.8436434,112.414845 C83.2879145,113.195052 80.7403584,113.195052 79.1766309,112.414845 C77.6089041,111.633487 77.6102372,110.365362 79.1659661,109.585155 C80.721695,108.804948 83.2492545,108.804948 84.8156482,109.585155" id="Fill-116" fill="#E0E0E0"></path>
                    <path d="M100.818585,118.585513 C102.385768,119.366196 102.395104,120.631641 100.838591,121.412324 C99.2807444,122.193008 96.7425742,122.197614 95.1767247,121.415779 C93.6095414,120.635095 93.6095414,119.366196 95.1660545,118.585513 C96.7225677,117.804829 99.2514014,117.804829 100.818585,118.585513" id="Fill-118" fill="#E0E0E0"></path>
                    <path d="M116.819947,126.587337 C118.386213,127.36757 118.394211,128.632285 116.838609,129.412518 C115.283006,130.192752 112.744987,130.197355 111.180053,129.417121 C109.613787,128.636888 109.605789,127.364118 111.161391,126.583884 C112.716994,125.8025 115.25368,125.807103 116.819947,126.587337" id="Fill-120" fill="#E0E0E0"></path>
                    <path d="M53.8124698,109.585239 C55.387125,110.370162 55.395125,111.635016 53.8404696,112.415335 C52.2831476,113.195654 49.7538326,113.195654 48.1791774,112.410731 C46.6138554,111.630412 46.6058555,110.366709 48.1618442,109.585239 C49.7178329,108.80492 52.2458145,108.80492 53.8124698,109.585239" id="Fill-126" fill="#E0E0E0"></path>
                    <path d="M68.8150089,118.585513 C70.3822482,119.366196 70.398254,120.635095 68.8430192,121.415779 C67.2864505,122.197614 64.7468561,122.193008 63.1796169,121.412324 C61.6137115,120.631641 61.6057086,119.366196 63.1622772,118.585513 C64.7188459,117.804829 67.2477697,117.804829 68.8150089,118.585513" id="Fill-128" fill="#E0E0E0"></path>
                    <path d="M84.8191168,126.586198 C86.3858118,127.36722 86.3951532,128.633212 84.8377997,129.414234 C83.2804462,130.195255 80.7475782,130.195255 79.1808832,129.414234 C77.6141882,128.63206 77.6048468,127.36722 79.1622003,126.586198 C80.7208883,125.805177 83.2497528,125.804025 84.8191168,126.586198" id="Fill-130" fill="#E0E0E0"></path>
                    <path d="M100.819288,136.587676 C102.386429,137.368359 102.394431,138.633804 100.83796,139.414487 C99.2814895,140.195171 96.7513906,140.195171 95.1842498,139.414487 C93.6184427,138.633804 93.6011041,137.364905 95.1575751,136.584221 C96.7153797,135.802386 99.2521473,135.806992 100.819288,136.587676" id="Fill-132" fill="#E0E0E0"></path>
                    <path d="M54.8199224,126.582879 C56.3862213,127.363112 56.3942194,128.635882 54.8385847,129.416116 C53.2829499,130.1975 50.7448791,130.192897 49.1812462,129.412663 C47.6136142,128.63243 47.6056161,127.367715 49.1612509,126.587482 C50.7168857,125.807248 53.2536234,125.802645 54.8199224,126.582879" id="Fill-140" fill="#E0E0E0"></path>
                    <path d="M68.8232504,136.583583 C70.3904669,137.364182 70.3904669,138.632944 68.8339209,139.414694 C67.2773748,140.195294 64.7471539,140.195294 63.1812712,139.413543 C61.6140548,138.632944 61.6047182,137.368787 63.162598,136.588188 C64.7191441,135.806437 67.256034,135.802983 68.8232504,136.583583" id="Fill-142" fill="#E0E0E0"></path>
                    <path d="M85.8250355,145.585566 C87.3900961,146.365745 87.3900961,147.633824 85.8343672,148.414003 C84.2786383,149.195332 81.7497456,149.195332 80.184685,148.414003 C78.6182913,147.633824 78.600961,146.365745 80.158023,145.585566 C81.7137519,144.805387 84.2573086,144.804236 85.8250355,145.585566" id="Fill-144" fill="#E0E0E0"></path>
                </g>
                <path d="M1221.72342,143 L911,323.602836 L1069.27923,415 L1380,234.39982 L1380,234.394508 L1221.72342,143 Z M919,323.059474 L1222.25896,147 L1373,233.943179 L1069.74104,410 L919,323.059474 Z" id="Fill-1" fill="url(#linearGradient-4)"></path>
            </g>
        </g>
    </g>
</svg>