<?xml version="1.0" encoding="utf-8"?>
<!-- Generator: Adobe Illustrator 26.0.2, SVG Export Plug-In . SVG Version: 6.00 Build 0)  -->
<svg version="1.1" id="Layer_1" xmlns="http://www.w3.org/2000/svg" xmlns:xlink="http://www.w3.org/1999/xlink" x="0px" y="0px"
	 viewBox="0 0 449.6 147.2" style="enable-background:new 0 0 449.6 147.2;" xml:space="preserve">
<style type="text/css">
	.st0{fill-rule:evenodd;clip-rule:evenodd;fill:#00A082;}
	.st1{fill:#00A082;}
	.st2{fill-rule:evenodd;clip-rule:evenodd;fill:#868686;}
</style>
<g>
	<path class="st0" d="M291.7,101.9c-4.3,8-13.5,9.6-22.3,9.3l-41.7,0c-3.1,0-5.7-2.5-5.7-5.7c0-3.1,2.5-5.7,5.7-5.7
		c13.6,0,27.2,0,40.8,0h0l0,0c3.2,0.2,8.7-0.7,9.9-4.2c1-2.7-1.6-5.5-3.4-7.2l-5.4-4.7c-5.2-4.6-10.7-8.9-16.1-13.3
		c-4.4-3.6-5-10.2-1.4-14.5c3.6-4.4,10.2-5,14.5-1.4l43.7,36.2c5,4.1,10,9.2,16.9,9.2h6.8c5,0,5.8-0.7,9.5-4l43.5-38.3
		c2.4-2.1,5.2-4.5,8.5-5c3.2-0.5,6,0.9,8.4,2.8l23.1,18.8c5.5,4.4,9.4,10.8,8.4,18.1c-0.8,5.7-4.4,10.4-9.1,13.5
		c-6,4-13.6,5.5-20.7,5.6c-10.9,0-21.8,0-32.8,0c-3.1,0-5.7-2.5-5.7-5.7c0-3.1,2.5-5.7,5.7-5.7c10.2,0,20.5,0,30.7,0h0l0,0
		c7.6,0.4,15.6-4.3,7.6-11.4c-1.8-1.6-3.6-3.2-5.4-4.7l-14-11.6c-2.3-1.9-5.7,1.3-7.4,2.7l-37,32.5c-4.3,3.8-8.4,3.7-13.9,3.7h-25.2
		c-3.1,0-6.2-0.4-8.7-2.4L291.7,101.9L291.7,101.9z M182,126.6c-0.8-5.4-5.4-9.5-11-9.5c-6.1,0-11.1,5-11.1,11.1
		c0,6.1,5,11.1,11.1,11.1c5.6,0,10.2-4.1,11-9.5c0.8,5.4,5.4,9.5,11,9.5c6.1,0,11.1-5,11.1-11.1c0-6.1-5-11.1-11.1-11.1
		C187.4,117.1,182.7,121.3,182,126.6L182,126.6z M238,78c-11.2,9.8-22.3,19.6-33.5,29.5c-4.3,3.8-8.4,3.7-13.9,3.7h-21.1
		c-1.7,0-3.3,0-5-0.1c-6.3-0.5-11.3-3.1-11.3-10.2c0-21.5,0-43,0-64.5c0-5.7,4.6-10.3,10.3-10.3c5.7,0,10.3,4.6,10.3,10.3
		c0,17.6,0,35.3,0,52.9c0,8.3,1.5,10.6,10.2,10.6h6.8c5,0,5.8-0.7,9.5-4c9.8-8.6,19.6-17.2,29.4-25.9C238,62.7,244.6,72.1,238,78
		L238,78z"/>
	<path class="st1" d="M112.2,8.3c1.4-0.7,3.1-0.1,3.7,1.3c0.7,1.4,0.1,3.1-1.3,3.7l-17.1,8.5c-1.4,0.7-3.1,0.1-3.7-1.3
		c-0.7-1.4-0.1-3.1,1.3-3.7L112.2,8.3L112.2,8.3z"/>
	<path class="st2" d="M135,89c-6.1,0-11.1,5-11.1,11.1c0,6.1,5,11.1,11.1,11.1c6.1,0,11.1-5,11.1-11.1C146.1,93.9,141.1,89,135,89
		L135,89z M91.2,93.2c1.2-7.6-2.7-14.5-8.4-19.1L58.6,54.4c-4.4-3.6-10.9-3-14.5,1.4c-3.6,4.4-3,10.9,1.4,14.5l21.5,18.1
		c0.9,0.8,1.8,1.7,2.4,2.7c2.6,4.2-0.8,6.9-4.6,8.1c-1.4,0.4-2.9,0.7-4.4,0.6l0,0l-40.8-0.1c-3.1,0-5.7,2.5-5.7,5.7
		c0,3.1,2.5,5.7,5.7,5.7l41.8,0.1c7.1,0.3,14.6-0.8,20.7-4.7C86.7,103.5,90.3,98.9,91.2,93.2L91.2,93.2z M116.7,100.8V36.3
		c0-5.7-4.6-10.3-10.3-10.3c-5.7,0-10.3,4.6-10.3,10.3v64.5c0,5.7,4.6,10.3,10.3,10.3C112.1,111.1,116.7,106.5,116.7,100.8
		L116.7,100.8z"/>
</g>
</svg>
