<?xml version="1.0" encoding="UTF-8"?>
<svg width="300px" height="112px" viewBox="0 0 300 112" version="1.1" xmlns="http://www.w3.org/2000/svg" xmlns:xlink="http://www.w3.org/1999/xlink">
    <title>Group 10 Copy</title>
    <defs>
        <rect id="path-1" x="0" y="0" width="300" height="112"></rect>
        <polygon id="path-3" points="2.49188974e-13 21.2965276 0 0 77.3546923 78.8693815 56.3546923 78.8693815"></polygon>
    </defs>
    <g id="World-Cup-2022-Landing" stroke="none" stroke-width="1" fill="none" fill-rule="evenodd">
        <g id="Homepage---World-Cup-2022---V05" transform="translate(-974.000000, -702.000000)">
            <g id="Group-19" transform="translate(974.000000, 698.000000)">
                <g id="Group-10-Copy" transform="translate(0.000000, 4.000000)">
                    <mask id="mask-2" fill="white">
                        <use xlink:href="#path-1"></use>
                    </mask>
                    <g id="Mask"></g>
                    <g mask="url(#mask-2)">
                        <g transform="translate(-2.698485, 25.502525)">
                            <polygon id="Triangle-Copy" fill="#D60341" points="25.6984848 79.1745905 2.69848481 99.1745905 2.69848481 58.1745905"></polygon>
                            <g id="Combined-Shape" stroke-width="1" fill="none" transform="translate(2.343793, 1.628093)">
                                <mask id="mask-4" fill="white">
                                    <use xlink:href="#path-3"></use>
                                </mask>
                                <g id="Mask"></g>
                                <path d="M6.35469228,23.8693815 C6.90697703,23.8693815 7.35469228,23.4216662 7.35469228,22.8693815 C7.35469228,22.3170967 6.90697703,21.8693815 6.35469228,21.8693815 C5.80240753,21.8693815 5.35469228,22.3170967 5.35469228,22.8693815 C5.35469228,23.4216662 5.80240753,23.8693815 6.35469228,23.8693815 Z M11.3546923,28.8693815 C11.906977,28.8693815 12.3546923,28.4216662 12.3546923,27.8693815 C12.3546923,27.3170967 11.906977,26.8693815 11.3546923,26.8693815 C10.8024075,26.8693815 10.3546923,27.3170967 10.3546923,27.8693815 C10.3546923,28.4216662 10.8024075,28.8693815 11.3546923,28.8693815 Z M6.35469228,28.8693815 C6.90697703,28.8693815 7.35469228,28.4216662 7.35469228,27.8693815 C7.35469228,27.3170967 6.90697703,26.8693815 6.35469228,26.8693815 C5.80240753,26.8693815 5.35469228,27.3170967 5.35469228,27.8693815 C5.35469228,28.4216662 5.80240753,28.8693815 6.35469228,28.8693815 Z M11.3546923,33.8693815 C11.906977,33.8693815 12.3546923,33.4216662 12.3546923,32.8693815 C12.3546923,32.3170967 11.906977,31.8693815 11.3546923,31.8693815 C10.8024075,31.8693815 10.3546923,32.3170967 10.3546923,32.8693815 C10.3546923,33.4216662 10.8024075,33.8693815 11.3546923,33.8693815 Z M16.3546923,38.8693815 C16.906977,38.8693815 17.3546923,38.4216662 17.3546923,37.8693815 C17.3546923,37.3170967 16.906977,36.8693815 16.3546923,36.8693815 C15.8024075,36.8693815 15.3546923,37.3170967 15.3546923,37.8693815 C15.3546923,38.4216662 15.8024075,38.8693815 16.3546923,38.8693815 Z M11.3546923,23.8693815 C11.906977,23.8693815 12.3546923,23.4216662 12.3546923,22.8693815 C12.3546923,22.3170967 11.906977,21.8693815 11.3546923,21.8693815 C10.8024075,21.8693815 10.3546923,22.3170967 10.3546923,22.8693815 C10.3546923,23.4216662 10.8024075,23.8693815 11.3546923,23.8693815 Z M16.3546923,28.8693815 C16.906977,28.8693815 17.3546923,28.4216662 17.3546923,27.8693815 C17.3546923,27.3170967 16.906977,26.8693815 16.3546923,26.8693815 C15.8024075,26.8693815 15.3546923,27.3170967 15.3546923,27.8693815 C15.3546923,28.4216662 15.8024075,28.8693815 16.3546923,28.8693815 Z M16.3546923,33.8693815 C16.906977,33.8693815 17.3546923,33.4216662 17.3546923,32.8693815 C17.3546923,32.3170967 16.906977,31.8693815 16.3546923,31.8693815 C15.8024075,31.8693815 15.3546923,32.3170967 15.3546923,32.8693815 C15.3546923,33.4216662 15.8024075,33.8693815 16.3546923,33.8693815 Z M21.3546923,38.8693815 C21.906977,38.8693815 22.3546923,38.4216662 22.3546923,37.8693815 C22.3546923,37.3170967 21.906977,36.8693815 21.3546923,36.8693815 C20.8024075,36.8693815 20.3546923,37.3170967 20.3546923,37.8693815 C20.3546923,38.4216662 20.8024075,38.8693815 21.3546923,38.8693815 Z M21.3546923,43.8693815 C21.906977,43.8693815 22.3546923,43.4216662 22.3546923,42.8693815 C22.3546923,42.3170967 21.906977,41.8693815 21.3546923,41.8693815 C20.8024075,41.8693815 20.3546923,42.3170967 20.3546923,42.8693815 C20.3546923,43.4216662 20.8024075,43.8693815 21.3546923,43.8693815 Z M16.3546923,23.8693815 C16.906977,23.8693815 17.3546923,23.4216662 17.3546923,22.8693815 C17.3546923,22.3170967 16.906977,21.8693815 16.3546923,21.8693815 C15.8024075,21.8693815 15.3546923,22.3170967 15.3546923,22.8693815 C15.3546923,23.4216662 15.8024075,23.8693815 16.3546923,23.8693815 Z M21.3546923,28.8693815 C21.906977,28.8693815 22.3546923,28.4216662 22.3546923,27.8693815 C22.3546923,27.3170967 21.906977,26.8693815 21.3546923,26.8693815 C20.8024075,26.8693815 20.3546923,27.3170967 20.3546923,27.8693815 C20.3546923,28.4216662 20.8024075,28.8693815 21.3546923,28.8693815 Z M26.3546923,28.8693815 C26.906977,28.8693815 27.3546923,28.4216662 27.3546923,27.8693815 C27.3546923,27.3170967 26.906977,26.8693815 26.3546923,26.8693815 C25.8024075,26.8693815 25.3546923,27.3170967 25.3546923,27.8693815 C25.3546923,28.4216662 25.8024075,28.8693815 26.3546923,28.8693815 Z M21.3546923,23.8693815 C21.906977,23.8693815 22.3546923,23.4216662 22.3546923,22.8693815 C22.3546923,22.3170967 21.906977,21.8693815 21.3546923,21.8693815 C20.8024075,21.8693815 20.3546923,22.3170967 20.3546923,22.8693815 C20.3546923,23.4216662 20.8024075,23.8693815 21.3546923,23.8693815 Z M1.35469228,18.8693815 C1.90697703,18.8693815 2.35469228,18.4216662 2.35469228,17.8693815 C2.35469228,17.3170967 1.90697703,16.8693815 1.35469228,16.8693815 C0.802407532,16.8693815 0.354692282,17.3170967 0.354692282,17.8693815 C0.354692282,18.4216662 0.802407532,18.8693815 1.35469228,18.8693815 Z M6.35469228,18.8693815 C6.90697703,18.8693815 7.35469228,18.4216662 7.35469228,17.8693815 C7.35469228,17.3170967 6.90697703,16.8693815 6.35469228,16.8693815 C5.80240753,16.8693815 5.35469228,17.3170967 5.35469228,17.8693815 C5.35469228,18.4216662 5.80240753,18.8693815 6.35469228,18.8693815 Z M11.3546923,18.8693815 C11.906977,18.8693815 12.3546923,18.4216662 12.3546923,17.8693815 C12.3546923,17.3170967 11.906977,16.8693815 11.3546923,16.8693815 C10.8024075,16.8693815 10.3546923,17.3170967 10.3546923,17.8693815 C10.3546923,18.4216662 10.8024075,18.8693815 11.3546923,18.8693815 Z M16.3546923,18.8693815 C16.906977,18.8693815 17.3546923,18.4216662 17.3546923,17.8693815 C17.3546923,17.3170967 16.906977,16.8693815 16.3546923,16.8693815 C15.8024075,16.8693815 15.3546923,17.3170967 15.3546923,17.8693815 C15.3546923,18.4216662 15.8024075,18.8693815 16.3546923,18.8693815 Z M1.35469228,13.8693815 C1.90697703,13.8693815 2.35469228,13.4216662 2.35469228,12.8693815 C2.35469228,12.3170967 1.90697703,11.8693815 1.35469228,11.8693815 C0.802407532,11.8693815 0.354692282,12.3170967 0.354692282,12.8693815 C0.354692282,13.4216662 0.802407532,13.8693815 1.35469228,13.8693815 Z M6.35469228,13.8693815 C6.90697703,13.8693815 7.35469228,13.4216662 7.35469228,12.8693815 C7.35469228,12.3170967 6.90697703,11.8693815 6.35469228,11.8693815 C5.80240753,11.8693815 5.35469228,12.3170967 5.35469228,12.8693815 C5.35469228,13.4216662 5.80240753,13.8693815 6.35469228,13.8693815 Z M11.3546923,13.8693815 C11.906977,13.8693815 12.3546923,13.4216662 12.3546923,12.8693815 C12.3546923,12.3170967 11.906977,11.8693815 11.3546923,11.8693815 C10.8024075,11.8693815 10.3546923,12.3170967 10.3546923,12.8693815 C10.3546923,13.4216662 10.8024075,13.8693815 11.3546923,13.8693815 Z M1.35469228,8.86938146 C1.90697703,8.86938146 2.35469228,8.42166621 2.35469228,7.86938146 C2.35469228,7.31709671 1.90697703,6.86938146 1.35469228,6.86938146 C0.802407532,6.86938146 0.354692282,7.31709671 0.354692282,7.86938146 C0.354692282,8.42166621 0.802407532,8.86938146 1.35469228,8.86938146 Z M6.35469228,8.86938146 C6.90697703,8.86938146 7.35469228,8.42166621 7.35469228,7.86938146 C7.35469228,7.31709671 6.90697703,6.86938146 6.35469228,6.86938146 C5.80240753,6.86938146 5.35469228,7.31709671 5.35469228,7.86938146 C5.35469228,8.42166621 5.80240753,8.86938146 6.35469228,8.86938146 Z M1.35469228,23.8693815 C1.90697703,23.8693815 2.35469228,23.4216662 2.35469228,22.8693815 C2.35469228,22.3170967 1.90697703,21.8693815 1.35469228,21.8693815 C0.802407532,21.8693815 0.354692282,22.3170967 0.354692282,22.8693815 C0.354692282,23.4216662 0.802407532,23.8693815 1.35469228,23.8693815 Z M1.35469228,3.86938146 C1.90697703,3.86938146 2.35469228,3.42166621 2.35469228,2.86938146 C2.35469228,2.31709671 1.90697703,1.86938146 1.35469228,1.86938146 C0.802407532,1.86938146 0.354692282,2.31709671 0.354692282,2.86938146 C0.354692282,3.42166621 0.802407532,3.86938146 1.35469228,3.86938146 Z M21.3546923,33.8693815 C21.906977,33.8693815 22.3546923,33.4216662 22.3546923,32.8693815 C22.3546923,32.3170967 21.906977,31.8693815 21.3546923,31.8693815 C20.8024075,31.8693815 20.3546923,32.3170967 20.3546923,32.8693815 C20.3546923,33.4216662 20.8024075,33.8693815 21.3546923,33.8693815 Z M26.3546923,38.8693815 C26.906977,38.8693815 27.3546923,38.4216662 27.3546923,37.8693815 C27.3546923,37.3170967 26.906977,36.8693815 26.3546923,36.8693815 C25.8024075,36.8693815 25.3546923,37.3170967 25.3546923,37.8693815 C25.3546923,38.4216662 25.8024075,38.8693815 26.3546923,38.8693815 Z M26.3546923,43.8693815 C26.906977,43.8693815 27.3546923,43.4216662 27.3546923,42.8693815 C27.3546923,42.3170967 26.906977,41.8693815 26.3546923,41.8693815 C25.8024075,41.8693815 25.3546923,42.3170967 25.3546923,42.8693815 C25.3546923,43.4216662 25.8024075,43.8693815 26.3546923,43.8693815 Z M26.3546923,48.8693815 C26.906977,48.8693815 27.3546923,48.4216662 27.3546923,47.8693815 C27.3546923,47.3170967 26.906977,46.8693815 26.3546923,46.8693815 C25.8024075,46.8693815 25.3546923,47.3170967 25.3546923,47.8693815 C25.3546923,48.4216662 25.8024075,48.8693815 26.3546923,48.8693815 Z M26.3546923,33.8693815 C26.906977,33.8693815 27.3546923,33.4216662 27.3546923,32.8693815 C27.3546923,32.3170967 26.906977,31.8693815 26.3546923,31.8693815 C25.8024075,31.8693815 25.3546923,32.3170967 25.3546923,32.8693815 C25.3546923,33.4216662 25.8024075,33.8693815 26.3546923,33.8693815 Z M31.3546923,33.8693815 C31.906977,33.8693815 32.3546923,33.4216662 32.3546923,32.8693815 C32.3546923,32.3170967 31.906977,31.8693815 31.3546923,31.8693815 C30.8024075,31.8693815 30.3546923,32.3170967 30.3546923,32.8693815 C30.3546923,33.4216662 30.8024075,33.8693815 31.3546923,33.8693815 Z M31.3546923,38.8693815 C31.906977,38.8693815 32.3546923,38.4216662 32.3546923,37.8693815 C32.3546923,37.3170967 31.906977,36.8693815 31.3546923,36.8693815 C30.8024075,36.8693815 30.3546923,37.3170967 30.3546923,37.8693815 C30.3546923,38.4216662 30.8024075,38.8693815 31.3546923,38.8693815 Z M31.3546923,43.8693815 C31.906977,43.8693815 32.3546923,43.4216662 32.3546923,42.8693815 C32.3546923,42.3170967 31.906977,41.8693815 31.3546923,41.8693815 C30.8024075,41.8693815 30.3546923,42.3170967 30.3546923,42.8693815 C30.3546923,43.4216662 30.8024075,43.8693815 31.3546923,43.8693815 Z M31.3546923,48.8693815 C31.906977,48.8693815 32.3546923,48.4216662 32.3546923,47.8693815 C32.3546923,47.3170967 31.906977,46.8693815 31.3546923,46.8693815 C30.8024075,46.8693815 30.3546923,47.3170967 30.3546923,47.8693815 C30.3546923,48.4216662 30.8024075,48.8693815 31.3546923,48.8693815 Z M31.3546923,53.8693815 C31.906977,53.8693815 32.3546923,53.4216662 32.3546923,52.8693815 C32.3546923,52.3170967 31.906977,51.8693815 31.3546923,51.8693815 C30.8024075,51.8693815 30.3546923,52.3170967 30.3546923,52.8693815 C30.3546923,53.4216662 30.8024075,53.8693815 31.3546923,53.8693815 Z M36.3546923,38.8693815 C36.906977,38.8693815 37.3546923,38.4216662 37.3546923,37.8693815 C37.3546923,37.3170967 36.906977,36.8693815 36.3546923,36.8693815 C35.8024075,36.8693815 35.3546923,37.3170967 35.3546923,37.8693815 C35.3546923,38.4216662 35.8024075,38.8693815 36.3546923,38.8693815 Z M36.3546923,43.8693815 C36.906977,43.8693815 37.3546923,43.4216662 37.3546923,42.8693815 C37.3546923,42.3170967 36.906977,41.8693815 36.3546923,41.8693815 C35.8024075,41.8693815 35.3546923,42.3170967 35.3546923,42.8693815 C35.3546923,43.4216662 35.8024075,43.8693815 36.3546923,43.8693815 Z M36.3546923,48.8693815 C36.906977,48.8693815 37.3546923,48.4216662 37.3546923,47.8693815 C37.3546923,47.3170967 36.906977,46.8693815 36.3546923,46.8693815 C35.8024075,46.8693815 35.3546923,47.3170967 35.3546923,47.8693815 C35.3546923,48.4216662 35.8024075,48.8693815 36.3546923,48.8693815 Z M36.3546923,53.8693815 C36.906977,53.8693815 37.3546923,53.4216662 37.3546923,52.8693815 C37.3546923,52.3170967 36.906977,51.8693815 36.3546923,51.8693815 C35.8024075,51.8693815 35.3546923,52.3170967 35.3546923,52.8693815 C35.3546923,53.4216662 35.8024075,53.8693815 36.3546923,53.8693815 Z M36.3546923,58.8693815 C36.906977,58.8693815 37.3546923,58.4216662 37.3546923,57.8693815 C37.3546923,57.3170967 36.906977,56.8693815 36.3546923,56.8693815 C35.8024075,56.8693815 35.3546923,57.3170967 35.3546923,57.8693815 C35.3546923,58.4216662 35.8024075,58.8693815 36.3546923,58.8693815 Z M41.3546923,43.8693815 C41.906977,43.8693815 42.3546923,43.4216662 42.3546923,42.8693815 C42.3546923,42.3170967 41.906977,41.8693815 41.3546923,41.8693815 C40.8024075,41.8693815 40.3546923,42.3170967 40.3546923,42.8693815 C40.3546923,43.4216662 40.8024075,43.8693815 41.3546923,43.8693815 Z M41.3546923,48.8693815 C41.906977,48.8693815 42.3546923,48.4216662 42.3546923,47.8693815 C42.3546923,47.3170967 41.906977,46.8693815 41.3546923,46.8693815 C40.8024075,46.8693815 40.3546923,47.3170967 40.3546923,47.8693815 C40.3546923,48.4216662 40.8024075,48.8693815 41.3546923,48.8693815 Z M41.3546923,53.8693815 C41.906977,53.8693815 42.3546923,53.4216662 42.3546923,52.8693815 C42.3546923,52.3170967 41.906977,51.8693815 41.3546923,51.8693815 C40.8024075,51.8693815 40.3546923,52.3170967 40.3546923,52.8693815 C40.3546923,53.4216662 40.8024075,53.8693815 41.3546923,53.8693815 Z M41.3546923,58.8693815 C41.906977,58.8693815 42.3546923,58.4216662 42.3546923,57.8693815 C42.3546923,57.3170967 41.906977,56.8693815 41.3546923,56.8693815 C40.8024075,56.8693815 40.3546923,57.3170967 40.3546923,57.8693815 C40.3546923,58.4216662 40.8024075,58.8693815 41.3546923,58.8693815 Z M41.3546923,63.8693815 C41.906977,63.8693815 42.3546923,63.4216662 42.3546923,62.8693815 C42.3546923,62.3170967 41.906977,61.8693815 41.3546923,61.8693815 C40.8024075,61.8693815 40.3546923,62.3170967 40.3546923,62.8693815 C40.3546923,63.4216662 40.8024075,63.8693815 41.3546923,63.8693815 Z M46.3546923,48.8693815 C46.906977,48.8693815 47.3546923,48.4216662 47.3546923,47.8693815 C47.3546923,47.3170967 46.906977,46.8693815 46.3546923,46.8693815 C45.8024075,46.8693815 45.3546923,47.3170967 45.3546923,47.8693815 C45.3546923,48.4216662 45.8024075,48.8693815 46.3546923,48.8693815 Z M51.3546923,53.8693815 C51.906977,53.8693815 52.3546923,53.4216662 52.3546923,52.8693815 C52.3546923,52.3170967 51.906977,51.8693815 51.3546923,51.8693815 C50.8024075,51.8693815 50.3546923,52.3170967 50.3546923,52.8693815 C50.3546923,53.4216662 50.8024075,53.8693815 51.3546923,53.8693815 Z M56.3546923,58.8693815 C56.906977,58.8693815 57.3546923,58.4216662 57.3546923,57.8693815 C57.3546923,57.3170967 56.906977,56.8693815 56.3546923,56.8693815 C55.8024075,56.8693815 55.3546923,57.3170967 55.3546923,57.8693815 C55.3546923,58.4216662 55.8024075,58.8693815 56.3546923,58.8693815 Z M61.3546923,63.8693815 C61.906977,63.8693815 62.3546923,63.4216662 62.3546923,62.8693815 C62.3546923,62.3170967 61.906977,61.8693815 61.3546923,61.8693815 C60.8024075,61.8693815 60.3546923,62.3170967 60.3546923,62.8693815 C60.3546923,63.4216662 60.8024075,63.8693815 61.3546923,63.8693815 Z M66.3546923,68.8693815 C66.906977,68.8693815 67.3546923,68.4216662 67.3546923,67.8693815 C67.3546923,67.3170967 66.906977,66.8693815 66.3546923,66.8693815 C65.8024075,66.8693815 65.3546923,67.3170967 65.3546923,67.8693815 C65.3546923,68.4216662 65.8024075,68.8693815 66.3546923,68.8693815 Z M71.3546923,73.8693815 C71.906977,73.8693815 72.3546923,73.4216662 72.3546923,72.8693815 C72.3546923,72.3170967 71.906977,71.8693815 71.3546923,71.8693815 C70.8024075,71.8693815 70.3546923,72.3170967 70.3546923,72.8693815 C70.3546923,73.4216662 70.8024075,73.8693815 71.3546923,73.8693815 Z M46.3546923,53.8693815 C46.906977,53.8693815 47.3546923,53.4216662 47.3546923,52.8693815 C47.3546923,52.3170967 46.906977,51.8693815 46.3546923,51.8693815 C45.8024075,51.8693815 45.3546923,52.3170967 45.3546923,52.8693815 C45.3546923,53.4216662 45.8024075,53.8693815 46.3546923,53.8693815 Z M51.3546923,58.8693815 C51.906977,58.8693815 52.3546923,58.4216662 52.3546923,57.8693815 C52.3546923,57.3170967 51.906977,56.8693815 51.3546923,56.8693815 C50.8024075,56.8693815 50.3546923,57.3170967 50.3546923,57.8693815 C50.3546923,58.4216662 50.8024075,58.8693815 51.3546923,58.8693815 Z M56.3546923,63.8693815 C56.906977,63.8693815 57.3546923,63.4216662 57.3546923,62.8693815 C57.3546923,62.3170967 56.906977,61.8693815 56.3546923,61.8693815 C55.8024075,61.8693815 55.3546923,62.3170967 55.3546923,62.8693815 C55.3546923,63.4216662 55.8024075,63.8693815 56.3546923,63.8693815 Z M61.3546923,68.8693815 C61.906977,68.8693815 62.3546923,68.4216662 62.3546923,67.8693815 C62.3546923,67.3170967 61.906977,66.8693815 61.3546923,66.8693815 C60.8024075,66.8693815 60.3546923,67.3170967 60.3546923,67.8693815 C60.3546923,68.4216662 60.8024075,68.8693815 61.3546923,68.8693815 Z M66.3546923,73.8693815 C66.906977,73.8693815 67.3546923,73.4216662 67.3546923,72.8693815 C67.3546923,72.3170967 66.906977,71.8693815 66.3546923,71.8693815 C65.8024075,71.8693815 65.3546923,72.3170967 65.3546923,72.8693815 C65.3546923,73.4216662 65.8024075,73.8693815 66.3546923,73.8693815 Z M71.3546923,78.8693815 C71.906977,78.8693815 72.3546923,78.4216662 72.3546923,77.8693815 C72.3546923,77.3170967 71.906977,76.8693815 71.3546923,76.8693815 C70.8024075,76.8693815 70.3546923,77.3170967 70.3546923,77.8693815 C70.3546923,78.4216662 70.8024075,78.8693815 71.3546923,78.8693815 Z M76.3546923,78.8693815 C76.906977,78.8693815 77.3546923,78.4216662 77.3546923,77.8693815 C77.3546923,77.3170967 76.906977,76.8693815 76.3546923,76.8693815 C75.8024075,76.8693815 75.3546923,77.3170967 75.3546923,77.8693815 C75.3546923,78.4216662 75.8024075,78.8693815 76.3546923,78.8693815 Z M46.3546923,58.8693815 C46.906977,58.8693815 47.3546923,58.4216662 47.3546923,57.8693815 C47.3546923,57.3170967 46.906977,56.8693815 46.3546923,56.8693815 C45.8024075,56.8693815 45.3546923,57.3170967 45.3546923,57.8693815 C45.3546923,58.4216662 45.8024075,58.8693815 46.3546923,58.8693815 Z M51.3546923,63.8693815 C51.906977,63.8693815 52.3546923,63.4216662 52.3546923,62.8693815 C52.3546923,62.3170967 51.906977,61.8693815 51.3546923,61.8693815 C50.8024075,61.8693815 50.3546923,62.3170967 50.3546923,62.8693815 C50.3546923,63.4216662 50.8024075,63.8693815 51.3546923,63.8693815 Z M56.3546923,68.8693815 C56.906977,68.8693815 57.3546923,68.4216662 57.3546923,67.8693815 C57.3546923,67.3170967 56.906977,66.8693815 56.3546923,66.8693815 C55.8024075,66.8693815 55.3546923,67.3170967 55.3546923,67.8693815 C55.3546923,68.4216662 55.8024075,68.8693815 56.3546923,68.8693815 Z M61.3546923,73.8693815 C61.906977,73.8693815 62.3546923,73.4216662 62.3546923,72.8693815 C62.3546923,72.3170967 61.906977,71.8693815 61.3546923,71.8693815 C60.8024075,71.8693815 60.3546923,72.3170967 60.3546923,72.8693815 C60.3546923,73.4216662 60.8024075,73.8693815 61.3546923,73.8693815 Z M66.3546923,78.8693815 C66.906977,78.8693815 67.3546923,78.4216662 67.3546923,77.8693815 C67.3546923,77.3170967 66.906977,76.8693815 66.3546923,76.8693815 C65.8024075,76.8693815 65.3546923,77.3170967 65.3546923,77.8693815 C65.3546923,78.4216662 65.8024075,78.8693815 66.3546923,78.8693815 Z M71.3546923,83.8693815 C71.906977,83.8693815 72.3546923,83.4216662 72.3546923,82.8693815 C72.3546923,82.3170967 71.906977,81.8693815 71.3546923,81.8693815 C70.8024075,81.8693815 70.3546923,82.3170967 70.3546923,82.8693815 C70.3546923,83.4216662 70.8024075,83.8693815 71.3546923,83.8693815 Z M76.3546923,83.8693815 C76.906977,83.8693815 77.3546923,83.4216662 77.3546923,82.8693815 C77.3546923,82.3170967 76.906977,81.8693815 76.3546923,81.8693815 C75.8024075,81.8693815 75.3546923,82.3170967 75.3546923,82.8693815 C75.3546923,83.4216662 75.8024075,83.8693815 76.3546923,83.8693815 Z M81.3546923,83.8693815 C81.906977,83.8693815 82.3546923,83.4216662 82.3546923,82.8693815 C82.3546923,82.3170967 81.906977,81.8693815 81.3546923,81.8693815 C80.8024075,81.8693815 80.3546923,82.3170967 80.3546923,82.8693815 C80.3546923,83.4216662 80.8024075,83.8693815 81.3546923,83.8693815 Z M46.3546923,63.8693815 C46.906977,63.8693815 47.3546923,63.4216662 47.3546923,62.8693815 C47.3546923,62.3170967 46.906977,61.8693815 46.3546923,61.8693815 C45.8024075,61.8693815 45.3546923,62.3170967 45.3546923,62.8693815 C45.3546923,63.4216662 45.8024075,63.8693815 46.3546923,63.8693815 Z M51.3546923,68.8693815 C51.906977,68.8693815 52.3546923,68.4216662 52.3546923,67.8693815 C52.3546923,67.3170967 51.906977,66.8693815 51.3546923,66.8693815 C50.8024075,66.8693815 50.3546923,67.3170967 50.3546923,67.8693815 C50.3546923,68.4216662 50.8024075,68.8693815 51.3546923,68.8693815 Z M56.3546923,73.8693815 C56.906977,73.8693815 57.3546923,73.4216662 57.3546923,72.8693815 C57.3546923,72.3170967 56.906977,71.8693815 56.3546923,71.8693815 C55.8024075,71.8693815 55.3546923,72.3170967 55.3546923,72.8693815 C55.3546923,73.4216662 55.8024075,73.8693815 56.3546923,73.8693815 Z M61.3546923,78.8693815 C61.906977,78.8693815 62.3546923,78.4216662 62.3546923,77.8693815 C62.3546923,77.3170967 61.906977,76.8693815 61.3546923,76.8693815 C60.8024075,76.8693815 60.3546923,77.3170967 60.3546923,77.8693815 C60.3546923,78.4216662 60.8024075,78.8693815 61.3546923,78.8693815 Z M66.3546923,83.8693815 C66.906977,83.8693815 67.3546923,83.4216662 67.3546923,82.8693815 C67.3546923,82.3170967 66.906977,81.8693815 66.3546923,81.8693815 C65.8024075,81.8693815 65.3546923,82.3170967 65.3546923,82.8693815 C65.3546923,83.4216662 65.8024075,83.8693815 66.3546923,83.8693815 Z M46.3546923,68.8693815 C46.906977,68.8693815 47.3546923,68.4216662 47.3546923,67.8693815 C47.3546923,67.3170967 46.906977,66.8693815 46.3546923,66.8693815 C45.8024075,66.8693815 45.3546923,67.3170967 45.3546923,67.8693815 C45.3546923,68.4216662 45.8024075,68.8693815 46.3546923,68.8693815 Z M51.3546923,73.8693815 C51.906977,73.8693815 52.3546923,73.4216662 52.3546923,72.8693815 C52.3546923,72.3170967 51.906977,71.8693815 51.3546923,71.8693815 C50.8024075,71.8693815 50.3546923,72.3170967 50.3546923,72.8693815 C50.3546923,73.4216662 50.8024075,73.8693815 51.3546923,73.8693815 Z M56.3546923,78.8693815 C56.906977,78.8693815 57.3546923,78.4216662 57.3546923,77.8693815 C57.3546923,77.3170967 56.906977,76.8693815 56.3546923,76.8693815 C55.8024075,76.8693815 55.3546923,77.3170967 55.3546923,77.8693815 C55.3546923,78.4216662 55.8024075,78.8693815 56.3546923,78.8693815 Z M61.3546923,83.8693815 C61.906977,83.8693815 62.3546923,83.4216662 62.3546923,82.8693815 C62.3546923,82.3170967 61.906977,81.8693815 61.3546923,81.8693815 C60.8024075,81.8693815 60.3546923,82.3170967 60.3546923,82.8693815 C60.3546923,83.4216662 60.8024075,83.8693815 61.3546923,83.8693815 Z" fill="#D60341" mask="url(#mask-4)"></path>
                            </g>
                            <rect id="Rectangle" fill="#D60341" transform="translate(29.698485, 51.497475) rotate(45.000000) translate(-29.698485, -51.497475) " x="-11.3015152" y="50.4974747" width="82" height="2"></rect>
                            <rect id="Rectangle-Copy-17" fill="#D60341" transform="translate(40.859650, 40.658640) rotate(45.000000) translate(-40.859650, -40.658640) " x="-15.64035" y="39.6586399" width="113" height="2"></rect>
                        </g>
                    </g>
                    <g id="Group-13" mask="url(#mask-2)">
                        <g transform="translate(-23.000000, -12.192388)">
                            <g id="Group-5" stroke-width="1" fill="none" transform="translate(225.342893, 0.000000)">
                                <g id="Group-24" transform="translate(0.000000, 10.461417)" fill="#D60341">
                                    <rect id="Rectangle-Copy-130" x="2.45710678" y="1.45710678" width="35" height="2"></rect>
                                    <rect id="Rectangle-Copy-131" x="48.4571068" y="47.4571068" width="35" height="2"></rect>
                                    <rect id="Rectangle-Copy-258" transform="translate(60.455844, 25.455844) rotate(45.000000) translate(-60.455844, -25.455844) " x="26.4558441" y="24.4558441" width="68" height="2"></rect>
                                    <rect id="Rectangle-Copy-264" transform="translate(25.102291, 25.102291) rotate(45.000000) translate(-25.102291, -25.102291) " x="-9.39770927" y="24.1022907" width="69" height="2"></rect>
                                    <path d="M43.5843799,9.10857438 C44.2489807,9.79405271 44.6532138,10.4263692 44.7970408,11.0055459 C44.9408168,11.5847518 44.7486676,12.0827031 44.2205697,12.4994133 C43.6923896,12.9161707 42.8100195,13.2411742 41.5734661,13.47442 C40.3368398,13.7077076 38.670596,13.8210741 36.5747896,13.8144879 L32.9172948,10.0347289 C34.7544288,10.0409215 36.0242366,9.97544791 36.7266998,9.83831876 C37.5902847,9.7017503 37.7984193,9.40256354 37.3511256,8.94074588 C37.0393754,8.61887298 36.6147725,8.3628583 36.0773274,8.17269582 C35.5398962,7.9825253 34.7760178,7.84037126 33.7856944,7.74623234 C32.7953881,7.65208356 31.5214165,7.58831499 29.9637732,7.55493017 C28.4061389,7.5215402 26.4673361,7.50075664 24.147358,7.49258334 C21.8273798,7.48441005 19.915651,7.49163534 18.4121647,7.5142631 C16.9086694,7.536896 15.7497622,7.5921651 14.9354369,7.68007393 C14.1210944,7.76799262 13.6211954,7.89892038 13.435743,8.0728554 C13.2502775,8.24679788 13.2994961,8.48092299 13.5834085,8.77522513 C13.786203,8.98544095 14.0620213,9.17146217 14.4108683,9.33328598 C14.7597218,9.49510606 15.2541244,9.63297206 15.8940805,9.74688143 C16.534049,9.86078365 17.3598615,9.95086369 18.3715179,10.0171215 C19.3831868,10.0833722 20.6303355,10.1189879 22.1129544,10.1239742 L20.7734583,8.7371533 L26.8642044,8.75814735 L31.7383133,13.799289 L12.9727853,13.7403173 L10.4190742,11.0907377 L13.3841136,11.0166986 L13.3435651,10.9746495 C12.4805515,10.8460426 11.6958111,10.6652875 10.989347,10.4323826 C10.2829061,10.1994642 9.67032848,9.93890251 9.1516073,9.65070126 C8.63290064,9.36249169 8.16645338,9.05349327 7.75225961,8.7237094 C7.33807251,8.39392171 6.96885042,8.0607938 6.64458834,7.72432851 C5.68531304,6.72895206 5.30725024,5.94523398 5.51033167,5.37321344 C5.71332208,4.80124512 6.4298555,4.37090414 7.65993026,4.08219146 C8.88991177,3.79353227 10.5788943,3.61485789 12.7269209,3.54614364 C14.8749116,3.47744996 17.3821635,3.44850961 20.2487034,3.45930717 C23.1474517,3.47022606 25.7791239,3.55337023 28.1437714,3.70871024 C30.5084874,3.86401099 32.6477267,4.15089692 34.5615363,4.56934114 C36.4754769,4.98771022 38.1796877,5.56207929 39.6741608,6.2924529 C41.1687543,7.02275748 42.4721907,7.96144738 43.5843799,9.10857438 Z M55.489259,20.3560147 C56.4522521,21.3492588 56.9352679,22.1877469 56.9382473,22.8715199 C56.9411079,23.5553474 56.4277326,24.1053345 55.3980862,24.5214947 C54.3683136,24.9377272 52.8035525,25.2340424 50.7038325,25.4104231 C48.6040259,25.5868536 45.9399297,25.6711692 42.7116088,25.6633328 C39.4832879,25.6554963 36.6432107,25.5577543 34.1914422,25.3700696 C31.7397604,25.1823351 29.5929085,24.8764597 27.7509162,24.4524264 C25.9090501,24.0283207 24.3504592,23.4720197 23.075115,22.7835396 C21.7998587,22.0950091 20.6826259,21.2530367 19.7233506,20.2576603 C18.7640753,19.2622838 18.2598802,18.4219972 18.2106992,17.7368384 C18.1614303,17.05173 18.6516759,16.5010631 19.6814073,16.0848542 C20.7110125,15.6687176 22.2746518,15.3730459 24.3723548,15.197822 C26.4699711,15.0226478 29.1311005,14.9400339 32.3558077,14.9499429 C35.5805149,14.959852 38.4176252,15.0592957 40.8672034,15.2482367 C43.3168683,15.437128 45.4625983,15.7436468 47.3044233,16.1677761 C49.1463744,16.5918331 50.7302333,17.1475875 52.0559766,17.8350527 C53.3818148,18.5224635 54.526266,19.3627706 55.489259,20.3560147 Z M69.5028234,34.4769783 L38.4223392,38.0701871 L34.4093645,33.9065621 L40.0823649,33.5188581 L37.0808014,30.4077812 L30.6396005,29.9952779 L26.6874285,25.894738 L64.7424594,29.5665154 L69.5028234,34.4769783 Z M77.4571068,42.6820679 L50.1940385,42.6437229 L54.8390067,47.4571068 L47.4616659,47.4488578 L39.0506332,38.7220678 L73.6732277,38.7788795 L77.4571068,42.6820679 Z M48.3911474,20.3392452 C48.106506,20.0453612 47.7020221,19.8104602 47.1777055,19.6345364 C46.6534018,19.4586052 45.8955441,19.3238822 44.9041355,19.2303658 C43.912744,19.1368394 42.6373092,19.0739101 41.0778249,19.0415812 C39.5183496,19.0092471 37.577231,18.9897918 35.2544622,18.9832191 L34.6822852,18.981891 C32.6155248,18.9781768 30.8922052,18.9871734 29.5123215,19.0088836 C28.0069852,19.0325725 26.8466149,19.0886807 26.0312043,19.177212 C25.2157766,19.2657531 24.7151218,19.3971144 24.529243,19.571294 C24.3433513,19.745481 24.3923567,19.9797283 24.676269,20.2740305 C24.9601814,20.5683326 25.3641033,20.803556 25.8880447,20.979695 C26.411999,21.1558266 27.1696847,21.2906482 28.1611049,21.3841581 C29.1525422,21.4776581 30.42819,21.5404653 31.988042,21.5725833 C33.5479031,21.6046961 35.4895427,21.6238525 37.8129543,21.6300566 C40.1363658,21.6362606 42.0509314,21.6274082 43.5566445,21.6035033 C45.0623486,21.5796035 46.2229319,21.5233731 47.0383883,21.4348155 C47.8538275,21.3462678 48.3543103,21.2150052 48.5398398,21.041026 C48.7253562,20.8670542 48.6757889,20.6331292 48.3911474,20.3392452 Z M58.0682758,32.0282578 L58.0276199,31.9862703 L42.3101587,30.88457 L44.420913,33.0698445 L58.0682758,32.0282578 Z" id="Combined-Shape" fill-rule="nonzero"></path>
                                </g>
                                <polygon id="Rectangle-Copy-111" fill="#D60341" transform="translate(64.859127, 78.716504) rotate(-45.000000) translate(-64.859127, -78.716504) " points="8.86152702 77.7226555 120.859127 77.7165041 120.856728 79.7103528 8.8591275 79.7165041"></polygon>
                                <polygon id="Rectangle-Copy-115" fill="#D60341" transform="translate(32.070545, 97.454834) rotate(-45.000000) translate(-32.070545, -97.454834) " points="-2.92795503 91.9886663 67.0705453 91.9548338 67.0690456 102.921001 -2.92945473 102.954834"></polygon>
                                <polygon id="Rectangle-Copy-114" fill="#D60341" transform="translate(75.708369, 86.867262) rotate(46.000000) translate(-75.708369, -86.867262) " points="40.7098691 85.8734131 110.708369 85.8672617 110.70687 87.8611104 40.7083694 87.8672617"></polygon>
                                <polygon id="Rectangle-Copy-112" fill="#D60341" points="62.4580066 37.1292571 104.457107 37.1231057 104.456207 39.1169544 62.4571068 39.1231057"></polygon>
                                <polygon id="Rectangle-Copy-113" fill="#D60341" points="48.4578823 58.2292575 84.6571068 58.2231062 84.6563312 60.2169548 48.4571068 60.2231062"></polygon>
                                <polygon id="Rectangle-Copy-117" fill="#00BCD4" transform="translate(93.932293, 19.445436) rotate(45.000000) translate(-93.932293, -19.445436) " points="73.9331501 11.9915717 113.932293 11.9454365 113.931436 26.8993013 73.9322931 26.9454365"></polygon>
                            </g>
                            <polygon id="Rectangle-Copy-18" fill="#D60341" transform="translate(314.393169, 78.306049) rotate(-90.000000) translate(-314.393169, -78.306049) " points="315.50683 68.7128797 333.893169 87.8992186 294.893169 87.8927928"></polygon>
                            <polygon id="Rectangle-Copy-19" fill="#00BCD4" points="290.284992 98.2837175 308.784992 118.007396 270.784992 118.00097"></polygon>
                            <rect id="Rectangle" fill="#D60341" transform="translate(95.502291, 34.721825) rotate(-45.000000) translate(-95.502291, -34.721825) " x="61.0022907" y="33.721825" width="69" height="2"></rect>
                            <rect id="Rectangle-Copy-259" fill="#D60341" transform="translate(54.113708, 40.732233) rotate(45.000000) translate(-54.113708, -40.732233) " x="28.1137085" y="39.7322326" width="52" height="2"></rect>
                            <polygon id="Rectangle-Copy-3" fill="#D60341" points="78.8010018 11.7180464 1.06733758e-12 11.7180464 2.23965918e-12 26.7180464 78.8010018 26.7180464"></polygon>
                            <polygon id="Rectangle-Copy-195" fill="#D60341" points="63.8 26.4185241 78.7922891 26.4185241 78.7922891 51.1715135 71.5997548 59.4185241 63.8 50.9986348"></polygon>
                            <polygon id="Rectangle-Copy-10" fill="#00BCD4" transform="translate(96.000000, 19.619534) rotate(90.000000) translate(-96.000000, -19.619534) " points="88 11.6195343 104 27.6195343 88.0041125 27.6154218"></polygon>
                            <polygon id="Rectangle-Copy-117" fill="#00BCD4" transform="translate(42.566757, 97.759145) rotate(45.000000) translate(-42.566757, -97.759145) " points="13.0680209 96.7652963 72.0667568 96.759145 72.0654928 98.7529936 13.0667568 98.759145"></polygon>
                            <polygon id="Rectangle-Copy-118" fill="#D60341" transform="translate(69.757359, 71.949747) rotate(45.000000) translate(-69.757359, -71.949747) " points="3.76018732 70.9558988 135.757359 70.9497475 135.754531 72.9435961 3.75735931 72.9497475"></polygon>
                        </g>
                    </g>
                </g>
            </g>
        </g>
    </g>
</svg>